<svg width="52" height="60" viewBox="0 0 52 60" fill="none" xmlns="http://www.w3.org/2000/svg">
<path d="M27.25 3.83494L26 3.11325L24.75 3.83494L3.96539 15.8349L2.71539 16.5566V18V42V43.4434L3.96539 44.1651L24.75 56.1651L26 56.8868L27.25 56.1651L48.0346 44.1651L49.2846 43.4434V42V18V16.5566L48.0346 15.8349L27.25 3.83494Z" fill="#FAFAFA" stroke="black" stroke-width="5"/>
<path d="M17.9165 30.6252H18.8331V36.7502C18.8331 37.7153 19.6554 38.5002 20.6665 38.5002H31.6665C32.6776 38.5002 33.4998 37.7153 33.4998 36.7502V30.6252H34.4165C34.5977 30.6251 34.7749 30.5738 34.9256 30.4777C35.0763 30.3815 35.1938 30.2449 35.2632 30.085C35.3325 29.9251 35.3507 29.7492 35.3153 29.5795C35.28 29.4098 35.1927 29.2539 35.0646 29.1316L26.8146 21.2566C26.7295 21.1752 26.6285 21.1107 26.5173 21.0667C26.4061 21.0227 26.2869 21 26.1665 21C26.0461 21 25.9269 21.0227 25.8157 21.0667C25.7045 21.1107 25.6034 21.1752 25.5184 21.2566L17.2684 29.1316C17.1402 29.2539 17.053 29.4098 17.0176 29.5795C16.9822 29.7492 17.0004 29.9251 17.0698 30.085C17.1391 30.2449 17.2566 30.3815 17.4073 30.4777C17.558 30.5738 17.7352 30.6251 17.9165 30.6252ZM24.3331 36.7502V32.3752H27.9998V36.7502H24.3331ZM26.1665 23.1124L31.6665 28.3624V32.3752L31.6674 36.7502H29.8331V32.3752C29.8331 31.4101 29.0109 30.6252 27.9998 30.6252H24.3331C23.3221 30.6252 22.4998 31.4101 22.4998 32.3752V36.7502H20.6665V28.3624L26.1665 23.1124Z" fill="black"/>
</svg>
